# xmcd
#
# Track frame offsets:
# 150
# 34271
# 70127
# 91142
# 121817
# 148443
# 168396
# 187107
# 213673
# 236663
# 267090
#
# Disc length: 3876 seconds
#
#
# Revision: 0
# Processed by: cddbd v1.4PL0 Copyright (c) Steve Scherf et al.
# Submitted via: FreeRIP 2.10 
#
DISCID=a50f220b
DTITLE=The Ian Siegal Band - Yo' Edjumikashun
DYEAR=1998
DGENRE=Blues
TTITLE0=Mudslide (live)
TTITLE1=Falling Down (Again)
TTITLE2=Drove Mama Crazy
TTITLE3=Got Me Drinking
TTITLE4=Qualified
TTITLE5=Tumbling Dice
TTITLE6=Backdoor Man
TTITLE7=Papa Was A Rolling Stone
TTITLE8=Come Rain or Come Shine
TTITLE9=Ain't No Trouble
TTITLE10=Busted
EXTD=
EXTT0=
EXTT1=
EXTT2=
EXTT3=
EXTT4=
EXTT5=
EXTT6=
EXTT7=
EXTT8=
EXTT9=
EXTT10=
PLAYORDER=
